<?xml version="1.0" encoding="UTF-8"?>
<svg xmlns="http://www.w3.org/2000/svg" viewBox="0 0 1080 560"
     font-family="-apple-system, BlinkMacSystemFont, 'Segoe UI', Roboto, sans-serif">
  <defs>
    <pattern id="dots" width="22" height="22" patternUnits="userSpaceOnUse">
      <circle cx="1" cy="1" r="0.9" fill="rgba(11,13,11,0.10)"/>
    </pattern>
    <marker id="arrow" markerWidth="8" markerHeight="6" refX="7" refY="3" orient="auto">
      <polygon points="0 0, 8 3, 0 6" fill="#52534e"/>
    </marker>
    <marker id="arrow-accent" markerWidth="8" markerHeight="6" refX="7" refY="3" orient="auto">
      <polygon points="0 0, 8 3, 0 6" fill="#f7591f"/>
    </marker>
    <marker id="arrow-link" markerWidth="8" markerHeight="6" refX="7" refY="3" orient="auto">
      <polygon points="0 0, 8 3, 0 6" fill="#1a70c7"/>
    </marker>
  </defs>

  <rect width="100%" height="100%" fill="#f5f4ed"/>
  <rect width="100%" height="100%" fill="url(#dots)" opacity="0.55"/>

  <!-- Boundary: Convex deployment -->
  <rect x="240" y="60" width="800" height="420" rx="8"
        fill="transparent" stroke="rgba(11,13,11,0.22)"
        stroke-width="1" stroke-dasharray="6,4"/>
  <rect x="252" y="48" width="156" height="20" rx="2" fill="#f5f4ed"/>
  <text x="260" y="62" fill="#52534e" font-size="9" font-family="ui-monospace, monospace"
        letter-spacing="1.5">CONVEX DEPLOYMENT</text>

  <!-- Boundary: gateway component (just dispatch + audit live here) -->
  <rect x="540" y="200" width="240" height="252" rx="6"
        fill="transparent" stroke="rgba(11,13,11,0.18)"
        stroke-width="1" stroke-dasharray="4,3"/>
  <rect x="552" y="188" width="180" height="20" rx="2" fill="#f5f4ed"/>
  <text x="560" y="202" fill="#52534e" font-size="9" font-family="ui-monospace, monospace"
        letter-spacing="1.5">MCP-GATEWAY COMPONENT</text>

  <!-- Arrows (drawn before boxes for correct z-order) -->
  <!-- 1. MCP Client -> /mcp/ -->
  <line x1="200" y1="268" x2="280" y2="268"
        stroke="#1a70c7" stroke-width="1.4" marker-end="url(#arrow-link)"/>
  <!-- 2. /mcp/ -> authorize (FOCAL) -->
  <line x1="416" y1="232" x2="476" y2="184"
        stroke="#f7591f" stroke-width="1.6" marker-end="url(#arrow-accent)"/>
  <!-- 3. /mcp/ -> dispatch -->
  <line x1="480" y1="268" x2="560" y2="268"
        stroke="#52534e" stroke-width="1.2" marker-end="url(#arrow)"/>
  <!-- 4. dispatch -> tool functions -->
  <line x1="760" y1="268" x2="820" y2="268"
        stroke="#52534e" stroke-width="1.2" marker-end="url(#arrow)"/>
  <!-- 5. dispatch -> audit log -->
  <line x1="660" y1="304" x2="660" y2="360"
        stroke="#52534e" stroke-width="1.2" marker-end="url(#arrow)"/>

  <!-- Arrow labels -->
  <rect x="208" y="248" width="64" height="12" rx="2" fill="#f5f4ed"/>
  <text x="240" y="258" fill="#1a70c7" font-size="8"
        font-family="ui-monospace, monospace" text-anchor="middle"
        letter-spacing="0.7">HTTP + JWT</text>

  <rect x="412" y="200" width="64" height="12" rx="2" fill="#f5f4ed"/>
  <text x="444" y="210" fill="#f7591f" font-size="8"
        font-family="ui-monospace, monospace" text-anchor="middle"
        letter-spacing="0.7">AUTHORIZE</text>

  <rect x="488" y="248" width="64" height="12" rx="2" fill="#f5f4ed"/>
  <text x="520" y="258" fill="#52534e" font-size="8"
        font-family="ui-monospace, monospace" text-anchor="middle"
        letter-spacing="0.7">RUN TOOL</text>

  <rect x="768" y="248" width="64" height="12" rx="2" fill="#f5f4ed"/>
  <text x="800" y="258" fill="#52534e" font-size="8"
        font-family="ui-monospace, monospace" text-anchor="middle"
        letter-spacing="0.7">RUN HANDLE</text>

  <rect x="632" y="320" width="56" height="12" rx="2" fill="#f5f4ed"/>
  <text x="660" y="330" fill="#52534e" font-size="8"
        font-family="ui-monospace, monospace" text-anchor="middle"
        letter-spacing="0.7">WRITE</text>

  <!-- Node: MCP Client (External) -->
  <rect x="40" y="232" width="160" height="72" rx="6" fill="#f5f4ed"/>
  <rect x="40" y="232" width="160" height="72" rx="6"
        fill="rgba(82,83,78,0.10)" stroke="#65655c" stroke-width="1"/>
  <rect x="48" y="240" width="32" height="12" rx="2" fill="transparent"
        stroke="rgba(101,101,92,0.40)" stroke-width="0.8"/>
  <text x="64" y="249" fill="#65655c" font-size="7"
        font-family="ui-monospace, monospace" text-anchor="middle"
        letter-spacing="0.7">EXT</text>
  <text x="120" y="272" fill="#0b0d0b" font-size="12" font-weight="600"
        text-anchor="middle">MCP Client</text>
  <text x="120" y="288" fill="#52534e" font-size="9"
        font-family="ui-monospace, monospace" text-anchor="middle">Inspector · IDEs · agents</text>

  <!-- Node: /mcp/ route (HOST) -->
  <rect x="280" y="232" width="200" height="72" rx="6" fill="#f5f4ed"/>
  <rect x="280" y="232" width="200" height="72" rx="6"
        fill="#ffffff" stroke="#0b0d0b" stroke-width="1"/>
  <rect x="288" y="240" width="36" height="12" rx="2" fill="transparent"
        stroke="rgba(11,13,11,0.40)" stroke-width="0.8"/>
  <text x="306" y="249" fill="#0b0d0b" font-size="7"
        font-family="ui-monospace, monospace" text-anchor="middle"
        letter-spacing="0.7">HOST</text>
  <text x="380" y="272" fill="#0b0d0b" font-size="12" font-weight="600"
        text-anchor="middle">/mcp/ httpAction</text>
  <text x="380" y="288" fill="#52534e" font-size="9"
        font-family="ui-monospace, monospace" text-anchor="middle">handleMcpRequest · session</text>

  <!-- Node: authorize callback (HOST, FOCAL) -->
  <rect x="476" y="108" width="200" height="72" rx="6" fill="#f5f4ed"/>
  <rect x="476" y="108" width="200" height="72" rx="6"
        fill="rgba(247,89,31,0.08)" stroke="#f7591f" stroke-width="1.2"/>
  <rect x="484" y="116" width="36" height="12" rx="2" fill="transparent"
        stroke="rgba(247,89,31,0.50)" stroke-width="0.8"/>
  <text x="502" y="125" fill="#f7591f" font-size="7"
        font-family="ui-monospace, monospace" text-anchor="middle"
        letter-spacing="0.7">HOST</text>
  <text x="576" y="148" fill="#0b0d0b" font-size="12" font-weight="600"
        text-anchor="middle">authorize callback</text>
  <text x="576" y="164" fill="#52534e" font-size="9"
        font-family="ui-monospace, monospace" text-anchor="middle">JS · reads ctx.auth · per call</text>

  <!-- Node: dispatch (COMPONENT) -->
  <rect x="560" y="232" width="200" height="72" rx="6" fill="#f5f4ed"/>
  <rect x="560" y="232" width="200" height="72" rx="6"
        fill="#ffffff" stroke="#0b0d0b" stroke-width="1"/>
  <rect x="568" y="240" width="36" height="12" rx="2" fill="transparent"
        stroke="rgba(11,13,11,0.40)" stroke-width="0.8"/>
  <text x="586" y="249" fill="#0b0d0b" font-size="7"
        font-family="ui-monospace, monospace" text-anchor="middle"
        letter-spacing="0.7">CORE</text>
  <text x="660" y="272" fill="#0b0d0b" font-size="12" font-weight="600"
        text-anchor="middle">dispatch.runTool</text>
  <text x="660" y="288" fill="#52534e" font-size="9"
        font-family="ui-monospace, monospace" text-anchor="middle">registry · function handles</text>

  <!-- Node: tool functions (HOST) -->
  <rect x="820" y="232" width="200" height="72" rx="6" fill="#f5f4ed"/>
  <rect x="820" y="232" width="200" height="72" rx="6"
        fill="#ffffff" stroke="#0b0d0b" stroke-width="1"/>
  <rect x="828" y="240" width="36" height="12" rx="2" fill="transparent"
        stroke="rgba(11,13,11,0.40)" stroke-width="0.8"/>
  <text x="846" y="249" fill="#0b0d0b" font-size="7"
        font-family="ui-monospace, monospace" text-anchor="middle"
        letter-spacing="0.7">HOST</text>
  <text x="920" y="272" fill="#0b0d0b" font-size="12" font-weight="600"
        text-anchor="middle">tool functions</text>
  <text x="920" y="288" fill="#52534e" font-size="9"
        font-family="ui-monospace, monospace" text-anchor="middle">query · mutation · action</text>

  <!-- Node: audit log (COMPONENT STORE) -->
  <rect x="560" y="360" width="200" height="72" rx="6" fill="#f5f4ed"/>
  <rect x="560" y="360" width="200" height="72" rx="6"
        fill="rgba(11,13,11,0.05)" stroke="#52534e" stroke-width="1"/>
  <rect x="568" y="368" width="44" height="12" rx="2" fill="transparent"
        stroke="rgba(82,83,78,0.50)" stroke-width="0.8"/>
  <text x="590" y="377" fill="#52534e" font-size="7"
        font-family="ui-monospace, monospace" text-anchor="middle"
        letter-spacing="0.7">STORE</text>
  <text x="660" y="400" fill="#0b0d0b" font-size="12" font-weight="600"
        text-anchor="middle">audit log</text>
  <text x="660" y="416" fill="#52534e" font-size="9"
        font-family="ui-monospace, monospace" text-anchor="middle">outcome · identity · args</text>

  <!-- Legend strip -->
  <line x1="40" y1="492" x2="1040" y2="492"
        stroke="rgba(11,13,11,0.10)" stroke-width="0.8"/>
  <text x="40" y="508" fill="#52534e" font-size="8"
        font-family="ui-monospace, monospace" letter-spacing="1.5">LEGEND</text>

  <rect x="40" y="524" width="14" height="10" rx="2"
        fill="rgba(247,89,31,0.08)" stroke="#f7591f" stroke-width="1"/>
  <text x="60" y="532" fill="#52534e" font-size="9">Your authorize callback (focal)</text>

  <rect x="248" y="524" width="14" height="10" rx="2"
        fill="#ffffff" stroke="#0b0d0b" stroke-width="1"/>
  <text x="268" y="532" fill="#52534e" font-size="9">Host code · component code</text>

  <rect x="448" y="524" width="14" height="10" rx="2"
        fill="rgba(11,13,11,0.05)" stroke="#52534e" stroke-width="1"/>
  <text x="468" y="532" fill="#52534e" font-size="9">Persistent store</text>

  <rect x="588" y="524" width="14" height="10" rx="2"
        fill="rgba(82,83,78,0.10)" stroke="#65655c" stroke-width="1"/>
  <text x="608" y="532" fill="#52534e" font-size="9">External</text>

  <line x1="676" y1="530" x2="704" y2="530"
        stroke="#1a70c7" stroke-width="1.4" marker-end="url(#arrow-link)"/>
  <text x="712" y="532" fill="#52534e" font-size="9">HTTP request</text>

  <line x1="816" y1="530" x2="844" y2="530"
        stroke="#f7591f" stroke-width="1.6" marker-end="url(#arrow-accent)"/>
  <text x="852" y="532" fill="#52534e" font-size="9">Policy decision</text>

  <line x1="956" y1="530" x2="984" y2="530"
        stroke="#52534e" stroke-width="1.2" marker-end="url(#arrow)"/>
  <text x="992" y="532" fill="#52534e" font-size="9">Internal</text>
</svg>
